<svg width="68" height="123" viewBox="0 0 68 123" fill="none" xmlns="http://www.w3.org/2000/svg">
<rect width="269" height="123" rx="16" fill="#E4DDCB"/>
<mask id="mask0_0_161" style="mask-type:alpha" maskUnits="userSpaceOnUse" x="0" y="0" width="269" height="123">
<rect width="269" height="123" rx="16" fill="#FFBC6E"/>
</mask>
<g mask="url(#mask0_0_161)">
</g>
<g opacity="0.6">
<path d="M27.6666 43C27.6666 39.9942 28.8607 37.1115 30.9861 34.9861C33.1115 32.8607 35.9942 31.6667 39 31.6667H73C76.0057 31.6667 78.8884 32.8607 81.0138 34.9861C83.1392 37.1115 84.3333 39.9942 84.3333 43V77C84.3333 80.0058 83.1392 82.8885 81.0138 85.0139C78.8884 87.1393 76.0057 88.3333 73 88.3333H39C35.9942 88.3333 33.1115 87.1393 30.9861 85.0139C28.8607 82.8885 27.6666 80.0058 27.6666 77V43Z" stroke="white" stroke-width="2" stroke-linecap="round" stroke-linejoin="round"/>
<path d="M46.0833 57.1667C49.9954 57.1667 53.1667 53.9954 53.1667 50.0833C53.1667 46.1713 49.9954 43 46.0833 43C42.1713 43 39 46.1713 39 50.0833C39 53.9954 42.1713 57.1667 46.0833 57.1667Z" stroke="white" stroke-width="2" stroke-linecap="round" stroke-linejoin="round"/>
<path d="M63.157 61.7596L39 88.3335H73.3768C76.2827 88.3335 79.0695 87.1791 81.1243 85.1244C83.179 83.0696 84.3333 80.2828 84.3333 77.377V77.0001C84.3333 75.6798 83.8375 75.1726 82.945 74.1951L71.5267 61.7426C70.9945 61.1621 70.3472 60.6989 69.626 60.3826C68.9048 60.0662 68.1256 59.9036 67.3381 59.9052C66.5506 59.9068 65.772 60.0726 65.0521 60.3918C64.3322 60.7111 63.6868 61.177 63.157 61.7596V61.7596Z" stroke="white" stroke-width="2" stroke-linecap="round" stroke-linejoin="round"/>
</g>
</svg>
