<svg width="15" height="14" viewBox="0 0 15 14" fill="none" xmlns="http://www.w3.org/2000/svg">
<path d="M7.87444 0.731291L9.44506 3.88756C9.56077 4.11624 9.78162 4.27504 10.0363 4.31033L13.5642 4.82414C13.7703 4.85308 13.9572 4.96177 14.0835 5.12763C14.2084 5.29137 14.262 5.49887 14.2317 5.70284C14.207 5.87223 14.1273 6.02891 14.0052 6.1489L11.4489 8.62691C11.2619 8.79983 11.1773 9.05603 11.2224 9.30658L11.8518 12.7903C11.9188 13.211 11.6401 13.6076 11.2224 13.6874C11.0503 13.7149 10.8739 13.686 10.7186 13.6069L7.57175 11.9674C7.3382 11.8495 7.06232 11.8495 6.82878 11.9674L3.6819 13.6069C3.29524 13.8123 2.81616 13.6726 2.60095 13.2914C2.52122 13.1397 2.493 12.9668 2.51911 12.7981L3.14848 9.31364C3.19364 9.06379 3.10826 8.80618 2.92199 8.63326L0.365683 6.15666C0.061579 5.86305 0.0524065 5.37959 0.345221 5.0754C0.351572 5.06905 0.358627 5.06199 0.365683 5.05493C0.487043 4.93142 0.646503 4.85308 0.818664 4.83261L4.34655 4.31809C4.60056 4.2821 4.82141 4.12471 4.93783 3.89462L6.452 0.731291C6.58676 0.460269 6.86617 0.291587 7.16957 0.298645H7.26412C7.5273 0.330405 7.75661 0.493441 7.87444 0.731291Z" fill="#1E222B"/>
</svg>
